<?xml version="1.0" encoding="UTF-8"?>
<svg id="Ebene_1" xmlns="http://www.w3.org/2000/svg" version="1.1" viewBox="0 0 1024 1024">
  <!-- Generator: Adobe Illustrator 30.3.0, SVG Export Plug-In . SVG Version: 2.1.3 Build 182)  -->
  <defs>
    <style>
      .st0 {
        fill: #00e87a;
      }
    </style>
  </defs>
  <path class="st0" d="M512,231.5c-174.11,0-315.25,141.14-315.25,315.25s141.14,315.25,315.25,315.25,315.25-141.14,315.25-315.25-141.14-315.25-315.25-315.25ZM604.9,639.64c-51.3,51.3-134.48,51.3-185.79,0-51.3-51.3-51.3-134.48,0-185.79,51.3-51.3,134.48-51.3,185.79,0,51.3,51.3,51.3,134.48,0,185.79Z"/>
  <path class="st0" d="M782.05,237.55c-17.28,17.28-45.3,17.28-62.59,0-17.28-17.28-17.28-45.3,0-62.59,17.28-17.28,45.3-17.28,62.59,0,17.28,17.28,17.28,45.3,0,62.59Z"/>
</svg>