<?xml version="1.0" encoding="UTF-8"?>
<svg id="Ebene_1" xmlns="http://www.w3.org/2000/svg" version="1.1" viewBox="0 0 1024 1024">
  <!-- Generator: Adobe Illustrator 30.3.0, SVG Export Plug-In . SVG Version: 2.1.3 Build 182)  -->
  <defs>
    <style>
      .st0 {
        fill: #00e87a;
      }

      .st1 {
        fill: #d2f9e4;
      }
    </style>
  </defs>
  <path class="st0" d="M702.64,391.64c-19.76,0-38.8,4.26-56.57,12.68l-2.66,1.26-2.37-1.73c-18.28-13.31-39.91-20.34-62.55-20.34-12.06,0-23.93,2.02-35.29,6.02l-3.75,1.32-2.1-3.38c-28.3-45.69-77.22-72.96-130.86-72.96-79.07,0-146.38,61.64-153.23,140.34l-.23,2.6-2.28,1.28c-38.1,21.39-61.77,61.77-61.77,105.39,0,66.61,54.19,120.79,120.8,120.79,13.89,0,27.54-2.36,40.57-7l2.66-.95,2.17,1.8c20.01,16.61,45.36,25.76,71.39,25.76,28.49,0,55.64-10.74,76.45-30.25l3.44-3.23,3.39,3.28c23.42,22.69,54.23,35.18,86.74,35.18,1.23,0,2.47-.02,3.7-.05,38.7-1.13,74.06-19.73,97.02-51.03l1.5-2.05,3.85.06c73,0,132.4-59.39,132.4-132.4,0-73-59.39-132.4-132.4-132.4ZM634.5,593.64c0,12.98-10.53,23.51-23.51,23.51h-197.98c-12.98,0-23.51-10.53-23.51-23.51h0c0-12.98,10.53-23.51,23.51-23.51h197.98c12.98,0,23.51,10.53,23.51,23.51h0ZM634.5,534.69c0,12.98-10.53,23.51-23.51,23.51h-197.98c-12.98,0-23.51-10.53-23.51-23.51h0c0-12.98,10.53-23.51,23.51-23.51h197.98c12.98,0,23.51,10.53,23.51,23.51h0ZM634.5,475.73c0,12.98-10.53,23.51-23.51,23.51h-197.98c-12.98,0-23.51-10.53-23.51-23.51h0c0-12.98,10.53-23.51,23.51-23.51h197.98c12.98,0,23.51,10.53,23.51,23.51h0Z"/>
  <path class="st1" d="M596.57,761.47c-31.76,0-62.82-8.49-89.85-24.54l-1.21-.71-1.23.67c-23.71,12.82-50.59,19.6-77.73,19.6-29.04,0-57.62-7.74-82.63-22.37l-.8-.47-.91.17c-10.65,2.03-21.56,3.06-32.43,3.06-95.26,0-172.76-77.5-172.76-172.76,0-53.92,24.5-103.76,67.21-136.74l.72-.56.19-.89c20.08-94.68,104.77-163.39,201.37-163.39,59.83,0,114.45,24.5,153.81,69l.84.95,1.27-.13c5.32-.54,10.73-.82,16.09-.82,23.83,0,47.72,5.47,69.06,15.83l.86.42.93-.28c17.18-5.2,35.12-7.83,53.3-7.83,101.66,0,184.37,82.71,184.37,184.37,0,93.12-69.65,171.8-162.02,183.02l-.87.11-.61.63c-32.01,33.21-75.23,52.25-121.71,53.6-1.76.05-3.49.08-5.22.08ZM507.3,713.77c26.24,18.25,57.12,27.9,89.27,27.9,1.54,0,3.09-.02,4.64-.07,43.8-1.28,83.86-19.99,112.78-52.68l.66-.75.99-.08c84.99-6.68,151.56-78.74,151.56-164.06,0-90.74-73.83-164.57-164.57-164.57-18.88,0-37.36,3.16-54.92,9.4l-1.05.37-.98-.54c-20.42-11.37-43.65-17.37-67.2-17.37-8.05,0-16.15.71-24.06,2.1l-1.46.25-.91-1.15c-35.35-44.61-88.41-70.2-145.58-70.2-89.48,0-168.31,66.57-183.37,154.84l-.17,1.02-.85.59c-40.89,28.63-65.3,75.48-65.3,125.33,0,84.35,68.62,152.97,152.97,152.97,12.13,0,24.22-1.44,35.95-4.27l1.04-.25.9.58c23.52,15.4,50.8,23.54,78.9,23.54s54.77-7.94,78-22.95l1.39-.9,1.36.95Z"/>
  <path class="st0" d="M595.92,579.58c-7.77,0-14.06,6.3-14.06,14.06s6.3,14.06,14.06,14.06,14.06-6.3,14.06-14.06-6.3-14.06-14.06-14.06ZM595.92,603.09c-5.21,0-9.44-4.24-9.44-9.44s4.24-9.44,9.44-9.44,9.44,4.24,9.44,9.44c0,5.21-4.23,9.44-9.44,9.44Z"/>
  <g>
    <path class="st0" d="M421.38,486.27c0,1.37-1.1,2.49-2.44,2.49h0c-1.34,0-2.44-1.12-2.44-2.49v-21.09c0-1.37,1.1-2.49,2.44-2.49h0c1.34,0,2.44,1.12,2.44,2.49v21.09Z"/>
    <path class="st0" d="M432.89,486.27c0,1.37-1.1,2.49-2.44,2.49h0c-1.34,0-2.44-1.12-2.44-2.49v-21.09c0-1.37,1.1-2.49,2.44-2.49h0c1.34,0,2.44,1.12,2.44,2.49v21.09Z"/>
    <path class="st0" d="M444.62,486.27c0,1.37-1.1,2.49-2.44,2.49h0c-1.34,0-2.44-1.12-2.44-2.49v-21.09c0-1.37,1.1-2.49,2.44-2.49h0c1.34,0,2.44,1.12,2.44,2.49v21.09Z"/>
  </g>
  <g>
    <path class="st0" d="M421.26,545.23c0,1.37-1.1,2.49-2.44,2.49h0c-1.34,0-2.44-1.12-2.44-2.49v-21.09c0-1.37,1.1-2.49,2.44-2.49h0c1.34,0,2.44,1.12,2.44,2.49v21.09Z"/>
    <path class="st0" d="M432.76,545.23c0,1.37-1.1,2.49-2.44,2.49h0c-1.34,0-2.44-1.12-2.44-2.49v-21.09c0-1.37,1.1-2.49,2.44-2.49h0c1.34,0,2.44,1.12,2.44,2.49v21.09Z"/>
    <path class="st0" d="M444.5,545.23c0,1.37-1.1,2.49-2.44,2.49h0c-1.34,0-2.44-1.12-2.44-2.49v-21.09c0-1.37,1.1-2.49,2.44-2.49h0c1.34,0,2.44,1.12,2.44,2.49v21.09Z"/>
  </g>
  <g>
    <path class="st0" d="M421.13,604.19c0,1.37-1.1,2.49-2.44,2.49h0c-1.34,0-2.44-1.12-2.44-2.49v-21.09c0-1.37,1.1-2.49,2.44-2.49h0c1.34,0,2.44,1.12,2.44,2.49v21.09Z"/>
    <path class="st0" d="M432.64,604.19c0,1.37-1.1,2.49-2.44,2.49h0c-1.34,0-2.44-1.12-2.44-2.49v-21.09c0-1.37,1.1-2.49,2.44-2.49h0c1.34,0,2.44,1.12,2.44,2.49v21.09Z"/>
    <path class="st0" d="M444.37,604.19c0,1.37-1.1,2.49-2.44,2.49h0c-1.34,0-2.44-1.12-2.44-2.49v-21.09c0-1.37,1.1-2.49,2.44-2.49h0c1.34,0,2.44,1.12,2.44,2.49v21.09Z"/>
  </g>
  <path class="st0" d="M595.92,520.62c-7.77,0-14.06,6.3-14.06,14.06s6.3,14.06,14.06,14.06,14.06-6.3,14.06-14.06-6.3-14.06-14.06-14.06ZM595.92,544.13c-5.21,0-9.44-4.24-9.44-9.44s4.24-9.44,9.44-9.44,9.44,4.24,9.44,9.44c0,5.21-4.24,9.44-9.44,9.44Z"/>
  <path class="st0" d="M595.92,461.67c-7.77,0-14.06,6.3-14.06,14.06s6.3,14.06,14.06,14.06,14.06-6.3,14.06-14.06-6.3-14.06-14.06-14.06ZM595.92,485.17c-5.21,0-9.44-4.24-9.44-9.44s4.24-9.44,9.44-9.44,9.44,4.24,9.44,9.44c0,5.21-4.23,9.44-9.44,9.44Z"/>
</svg>