<?xml version="1.0" encoding="UTF-8"?>
<svg id="Ebene_1" xmlns="http://www.w3.org/2000/svg" version="1.1" viewBox="0 0 400 265">
  <!-- Generator: Adobe Illustrator 30.3.0, SVG Export Plug-In . SVG Version: 2.1.3 Build 182)  -->
  <defs>
    <style>
      .st0 {
        fill: #00e87a;
      }

      .st1 {
        fill: #d2f9e4;
      }
    </style>
  </defs>
  <path class="st0" d="M300.4,69.11c-10.41,0-20.43,2.25-29.79,6.68l-1.4.66-1.25-.91c-9.63-7.01-21.02-10.71-32.94-10.71-6.35,0-12.6,1.07-18.59,3.17l-1.98.7-1.1-1.78c-14.91-24.06-40.67-38.43-68.92-38.43-41.64,0-77.09,32.47-80.7,73.91l-.12,1.37-1.2.67c-20.07,11.26-32.53,32.53-32.53,55.5,0,35.08,28.54,63.62,63.62,63.62,7.31,0,14.5-1.24,21.37-3.69l1.4-.5,1.14.95c10.54,8.75,23.89,13.57,37.6,13.57,15,0,29.3-5.66,40.26-15.93l1.81-1.7,1.79,1.73c12.34,11.95,28.56,18.53,45.68,18.53.65,0,1.3,0,1.95-.03,20.38-.59,39.01-10.39,51.1-26.87l.79-1.08,2.03.03c38.45,0,69.73-31.28,69.73-69.73,0-38.45-31.28-69.73-69.73-69.73ZM264.52,175.5c0,6.84-5.54,12.38-12.38,12.38h-104.27c-6.84,0-12.38-5.54-12.38-12.38h0c0-6.84,5.54-12.38,12.38-12.38h104.27c6.84,0,12.38,5.54,12.38,12.38h0ZM264.52,144.45c0,6.84-5.54,12.38-12.38,12.38h-104.27c-6.84,0-12.38-5.54-12.38-12.38h0c0-6.84,5.54-12.38,12.38-12.38h104.27c6.84,0,12.38,5.54,12.38,12.38h0ZM264.52,113.4c0,6.84-5.54,12.38-12.38,12.38h-104.27c-6.84,0-12.38-5.54-12.38-12.38h0c0-6.84,5.54-12.38,12.38-12.38h104.27c6.84,0,12.38,5.54,12.38,12.38h0Z"/>
  <path class="st1" d="M244.54,263.89c-16.72,0-33.09-4.47-47.32-12.93l-.63-.38-.65.35c-12.49,6.75-26.64,10.32-40.94,10.32-15.3,0-30.34-4.07-43.52-11.78l-.42-.25-.48.09c-5.61,1.07-11.35,1.61-17.08,1.61-50.17,0-90.99-40.82-90.99-90.99,0-28.4,12.9-54.65,35.4-72.02l.38-.29.1-.47C48.95,37.3,93.55,1.11,144.43,1.11c31.51,0,60.28,12.91,81.01,36.34l.44.5.67-.07c2.8-.28,5.65-.43,8.47-.43,12.55,0,25.13,2.88,36.37,8.34l.46.22.49-.15c9.05-2.74,18.49-4.13,28.07-4.13,53.54,0,97.1,43.56,97.1,97.1,0,49.05-36.68,90.48-85.33,96.39l-.46.06-.32.33c-16.86,17.49-39.62,27.52-64.1,28.23-.93.03-1.84.04-2.75.04ZM197.53,238.77c13.82,9.61,30.08,14.69,47.01,14.69.81,0,1.63-.01,2.44-.04,23.07-.67,44.16-10.53,59.4-27.75l.35-.39.52-.04c44.76-3.52,79.82-41.47,79.82-86.4,0-47.79-38.88-86.67-86.67-86.67-9.95,0-19.68,1.67-28.93,4.95l-.56.2-.51-.29c-10.75-5.99-22.99-9.15-35.39-9.15-4.24,0-8.5.37-12.67,1.1l-.77.13-.48-.61c-18.62-23.49-46.56-36.97-76.67-36.97-47.13,0-88.64,35.06-96.57,81.55l-.09.54-.45.31c-21.53,15.08-34.39,39.75-34.39,66.01,0,44.42,36.14,80.56,80.56,80.56,6.39,0,12.76-.76,18.93-2.25l.55-.13.47.31c12.39,8.11,26.75,12.4,41.55,12.4s28.85-4.18,41.08-12.09l.73-.47.72.5Z"/>
  <path class="st0" d="M244.2,168.09c-4.09,0-7.41,3.32-7.41,7.41s3.32,7.41,7.41,7.41,7.41-3.32,7.41-7.41-3.32-7.41-7.41-7.41ZM244.2,180.47c-2.74,0-4.97-2.23-4.97-4.97s2.23-4.97,4.97-4.97,4.97,2.23,4.97,4.97c0,2.74-2.23,4.97-4.97,4.97Z"/>
  <g>
    <path class="st0" d="M152.28,118.95c0,.72-.58,1.31-1.29,1.31h0c-.71,0-1.29-.59-1.29-1.31v-11.11c0-.72.58-1.31,1.29-1.31h0c.71,0,1.29.59,1.29,1.31v11.11Z"/>
    <path class="st0" d="M158.33,118.95c0,.72-.58,1.31-1.29,1.31h0c-.71,0-1.29-.59-1.29-1.31v-11.11c0-.72.58-1.31,1.29-1.31h0c.71,0,1.29.59,1.29,1.31v11.11Z"/>
    <path class="st0" d="M164.51,118.95c0,.72-.58,1.31-1.29,1.31h0c-.71,0-1.29-.59-1.29-1.31v-11.11c0-.72.58-1.31,1.29-1.31h0c.71,0,1.29.59,1.29,1.31v11.11Z"/>
  </g>
  <g>
    <path class="st0" d="M152.21,150c0,.72-.58,1.31-1.29,1.31h0c-.71,0-1.29-.59-1.29-1.31v-11.11c0-.72.58-1.31,1.29-1.31h0c.71,0,1.29.59,1.29,1.31v11.1Z"/>
    <path class="st0" d="M158.27,150c0,.72-.58,1.31-1.29,1.31h0c-.71,0-1.29-.59-1.29-1.31v-11.11c0-.72.58-1.31,1.29-1.31h0c.71,0,1.29.59,1.29,1.31v11.1Z"/>
    <path class="st0" d="M164.45,150c0,.72-.58,1.31-1.29,1.31h0c-.71,0-1.29-.59-1.29-1.31v-11.11c0-.72.58-1.31,1.29-1.31h0c.71,0,1.29.59,1.29,1.31v11.1Z"/>
  </g>
  <g>
    <path class="st0" d="M152.14,181.05c0,.72-.58,1.31-1.29,1.31h0c-.71,0-1.29-.59-1.29-1.31v-11.11c0-.72.58-1.31,1.29-1.31h0c.71,0,1.29.59,1.29,1.31v11.11Z"/>
    <path class="st0" d="M158.2,181.05c0,.72-.58,1.31-1.29,1.31h0c-.71,0-1.29-.59-1.29-1.31v-11.11c0-.72.58-1.31,1.29-1.31h0c.71,0,1.29.59,1.29,1.31v11.11Z"/>
    <path class="st0" d="M164.38,181.05c0,.72-.58,1.31-1.29,1.31h0c-.71,0-1.29-.59-1.29-1.31v-11.11c0-.72.58-1.31,1.29-1.31h0c.71,0,1.29.59,1.29,1.31v11.11Z"/>
  </g>
  <path class="st0" d="M244.2,137.04c-4.09,0-7.41,3.32-7.41,7.41s3.32,7.41,7.41,7.41,7.41-3.32,7.41-7.41-3.32-7.41-7.41-7.41ZM244.2,149.42c-2.74,0-4.97-2.23-4.97-4.97s2.23-4.97,4.97-4.97,4.97,2.23,4.97,4.97c0,2.74-2.23,4.97-4.97,4.97Z"/>
  <path class="st0" d="M244.2,105.99c-4.09,0-7.41,3.32-7.41,7.41s3.32,7.41,7.41,7.41,7.41-3.32,7.41-7.41-3.32-7.41-7.41-7.41ZM244.2,118.37c-2.74,0-4.97-2.23-4.97-4.97s2.23-4.97,4.97-4.97,4.97,2.23,4.97,4.97c0,2.74-2.23,4.97-4.97,4.97Z"/>
</svg>