<?xml version="1.0" encoding="UTF-8"?>
<svg id="Ebene_1" xmlns="http://www.w3.org/2000/svg" version="1.1" viewBox="0 0 32 32">
  <!-- Generator: Adobe Illustrator 30.3.0, SVG Export Plug-In . SVG Version: 2.1.3 Build 182)  -->
  <defs>
    <style>
      .st0 {
        fill: #00e87a;
      }

      .st1 {
        fill: #d2f9e4;
      }
    </style>
  </defs>
  <path class="st0" d="M23.88,11.03c-.82,0-1.6.18-2.34.52l-.11.05-.1-.07c-.76-.55-1.65-.84-2.59-.84-.5,0-.99.08-1.46.25l-.16.05-.09-.14c-1.17-1.89-3.19-3.02-5.41-3.02-3.27,0-6.05,2.55-6.33,5.8v.11s-.1.05-.1.05c-1.57.88-2.55,2.55-2.55,4.36,0,2.75,2.24,4.99,4.99,4.99.57,0,1.14-.1,1.68-.29l.11-.04.09.07c.83.69,1.87,1.06,2.95,1.06,1.18,0,2.3-.44,3.16-1.25l.14-.13.14.14c.97.94,2.24,1.45,3.59,1.45.05,0,.1,0,.15,0,1.6-.05,3.06-.82,4.01-2.11l.06-.08h.16c3.02,0,5.47-2.45,5.47-5.47,0-3.02-2.45-5.47-5.47-5.47ZM21.06,19.37c0,.54-.44.97-.97.97h-8.18c-.54,0-.97-.44-.97-.97h0c0-.54.44-.97.97-.97h8.18c.54,0,.97.44.97.97h0ZM21.06,16.94c0,.54-.44.97-.97.97h-8.18c-.54,0-.97-.44-.97-.97h0c0-.54.44-.97.97-.97h8.18c.54,0,.97.44.97.97h0ZM21.06,14.5c0,.54-.44.97-.97.97h-8.18c-.54,0-.97-.44-.97-.97h0c0-.54.44-.97.97-.97h8.18c.54,0,.97.44.97.97h0Z"/>
  <path class="st1" d="M19.5,26.31c-1.31,0-2.6-.35-3.71-1.01l-.05-.03-.05.03c-.98.53-2.09.81-3.21.81-1.2,0-2.38-.32-3.42-.92l-.03-.02h-.04c-.44.09-.89.13-1.34.13-3.94,0-7.14-3.2-7.14-7.14,0-2.23,1.01-4.29,2.78-5.65l.03-.02v-.04c.84-3.91,4.34-6.75,8.33-6.75,2.47,0,4.73,1.01,6.36,2.85l.03.04h.05c.22-.03.44-.04.67-.04.99,0,1.97.23,2.85.65l.04.02h.04c.71-.23,1.45-.34,2.2-.34,4.2,0,7.62,3.42,7.62,7.62,0,3.85-2.88,7.1-6.7,7.56h-.04s-.03.03-.03.03c-1.32,1.37-3.11,2.16-5.03,2.22-.07,0-.14,0-.22,0ZM15.81,24.34c1.08.75,2.36,1.15,3.69,1.15.06,0,.13,0,.19,0,1.81-.05,3.47-.83,4.66-2.18l.03-.03h.04c3.51-.28,6.26-3.26,6.26-6.78,0-3.75-3.05-6.8-6.8-6.8-.78,0-1.54.13-2.27.39l-.04.02-.04-.02c-.84-.47-1.8-.72-2.78-.72-.33,0-.67.03-.99.09h-.06s-.04-.04-.04-.04c-1.46-1.84-3.65-2.9-6.02-2.9-3.7,0-6.96,2.75-7.58,6.4v.04s-.04.02-.04.02c-1.69,1.18-2.7,3.12-2.7,5.18,0,3.49,2.84,6.32,6.32,6.32.5,0,1-.06,1.49-.18h.04s.04.01.04.01c.97.64,2.1.97,3.26.97s2.26-.33,3.22-.95l.06-.04.06.04Z"/>
  <path class="st0" d="M19.47,18.79c-.32,0-.58.26-.58.58s.26.58.58.58.58-.26.58-.58-.26-.58-.58-.58ZM19.47,19.76c-.22,0-.39-.18-.39-.39s.18-.39.39-.39.39.18.39.39c0,.22-.18.39-.39.39Z"/>
  <g>
    <path class="st0" d="M12.25,14.94c0,.06-.05.1-.1.1h0c-.06,0-.1-.05-.1-.1v-.87c0-.06.05-.1.1-.1h0c.06,0,.1.05.1.1v.87Z"/>
    <path class="st0" d="M12.73,14.94c0,.06-.05.1-.1.1h0c-.06,0-.1-.05-.1-.1v-.87c0-.06.05-.1.1-.1h0c.06,0,.1.05.1.1v.87Z"/>
    <path class="st0" d="M13.21,14.94c0,.06-.05.1-.1.1h0c-.06,0-.1-.05-.1-.1v-.87c0-.06.05-.1.1-.1h0c.06,0,.1.05.1.1v.87Z"/>
  </g>
  <g>
    <path class="st0" d="M12.25,17.37c0,.06-.05.1-.1.1h0c-.06,0-.1-.05-.1-.1v-.87c0-.06.05-.1.1-.1h0c.06,0,.1.05.1.1v.87Z"/>
    <path class="st0" d="M12.72,17.37c0,.06-.05.1-.1.1h0c-.06,0-.1-.05-.1-.1v-.87c0-.06.05-.1.1-.1h0c.06,0,.1.05.1.1v.87Z"/>
    <path class="st0" d="M13.21,17.37c0,.06-.05.1-.1.1h0c-.06,0-.1-.05-.1-.1v-.87c0-.06.05-.1.1-.1h0c.06,0,.1.05.1.1v.87Z"/>
  </g>
  <g>
    <path class="st0" d="M12.24,19.81c0,.06-.05.1-.1.1h0c-.06,0-.1-.05-.1-.1v-.87c0-.06.05-.1.1-.1h0c.06,0,.1.05.1.1v.87Z"/>
    <path class="st0" d="M12.72,19.81c0,.06-.05.1-.1.1h0c-.06,0-.1-.05-.1-.1v-.87c0-.06.05-.1.1-.1h0c.06,0,.1.05.1.1v.87Z"/>
    <path class="st0" d="M13.2,19.81c0,.06-.05.1-.1.1h0c-.06,0-.1-.05-.1-.1v-.87c0-.06.05-.1.1-.1h0c.06,0,.1.05.1.1v.87Z"/>
  </g>
  <path class="st0" d="M19.47,16.36c-.32,0-.58.26-.58.58s.26.58.58.58.58-.26.58-.58-.26-.58-.58-.58ZM19.47,17.33c-.22,0-.39-.18-.39-.39s.18-.39.39-.39.39.18.39.39c0,.22-.18.39-.39.39Z"/>
  <path class="st0" d="M19.47,13.92c-.32,0-.58.26-.58.58s.26.58.58.58.58-.26.58-.58-.26-.58-.58-.58ZM19.47,14.89c-.22,0-.39-.18-.39-.39s.18-.39.39-.39.39.18.39.39c0,.22-.18.39-.39.39Z"/>
</svg>