<?xml version="1.0" encoding="UTF-8"?>
<svg id="Ebene_1" xmlns="http://www.w3.org/2000/svg" version="1.1" viewBox="0 0 32 32">
  <!-- Generator: Adobe Illustrator 30.3.0, SVG Export Plug-In . SVG Version: 2.1.3 Build 182)  -->
  <defs>
    <style>
      .st0 {
        fill: #00e87a;
      }
    </style>
  </defs>
  <path class="st0" d="M16,3.98c-7.46,0-13.51,6.05-13.51,13.51s6.05,13.51,13.51,13.51,13.51-6.05,13.51-13.51S23.46,3.98,16,3.98ZM19.98,21.47c-2.2,2.2-5.76,2.2-7.96,0s-2.2-5.76,0-7.96c2.2-2.2,5.76-2.2,7.96,0,2.2,2.2,2.2,5.76,0,7.96Z"/>
  <path class="st0" d="M27.57,4.24c-.74.74-1.94.74-2.68,0s-.74-1.94,0-2.68,1.94-.74,2.68,0,.74,1.94,0,2.68Z"/>
</svg>