<?xml version="1.0" encoding="UTF-8"?>
<svg id="Ebene_1" xmlns="http://www.w3.org/2000/svg" version="1.1" viewBox="0 0 235 265">
  <!-- Generator: Adobe Illustrator 30.3.0, SVG Export Plug-In . SVG Version: 2.1.3 Build 182)  -->
  <defs>
    <style>
      .st0 {
        fill: #00e87a;
      }
    </style>
  </defs>
  <path class="st0" d="M117.5,28.32C52.83,28.32.41,80.74.41,145.41s52.42,117.09,117.09,117.09,117.09-52.42,117.09-117.09S182.17,28.32,117.5,28.32ZM152,179.91c-19.06,19.06-49.95,19.06-69.01,0-19.06-19.06-19.06-49.95,0-69.01,19.06-19.06,49.95-19.06,69.01,0,19.06,19.06,19.06,49.95,0,69.01Z"/>
  <path class="st0" d="M217.8,30.56c-6.42,6.42-16.83,6.42-23.25,0-6.42-6.42-6.42-16.83,0-23.25,6.42-6.42,16.83-6.42,23.25,0s6.42,16.83,0,23.25Z"/>
</svg>